<?xml version="1.0" encoding="utf-8"?>
<!-- Generator: Adobe Illustrator 16.0.0, SVG Export Plug-In . SVG Version: 6.00 Build 0)  -->
<!DOCTYPE svg PUBLIC "-//W3C//DTD SVG 1.1//EN" "http://www.w3.org/Graphics/SVG/1.1/DTD/svg11.dtd">
<svg version="1.1" id="Layer_1" xmlns="http://www.w3.org/2000/svg" xmlns:xlink="http://www.w3.org/1999/xlink" x="0px" y="0px"
	 width="1081.425px" height="874.026px" viewBox="0 0 1081.425 874.026" enable-background="new 0 0 1081.425 874.026"
	 xml:space="preserve">
<g opacity="0.8">
	<g>
		<defs>
			<rect id="SVGID_1_" x="265.081" y="57.291" width="623.337" height="623.337"/>
		</defs>
		<clipPath id="SVGID_2_">
			<use xlink:href="#SVGID_1_"  overflow="visible"/>
		</clipPath>
		<g clip-path="url(#SVGID_2_)">
			<path fill="#FFFFFF" d="M888.418,368.959c0,172.129-139.539,311.668-311.668,311.668c-172.13,0-311.669-139.539-311.669-311.668
				c0-172.13,139.539-311.668,311.669-311.668C748.879,57.292,888.418,196.83,888.418,368.959"/>
		</g>
	</g>
</g>
<g opacity="0.8">
	<g>
		<defs>
			<rect id="SVGID_3_" x="381.607" y="250.689" width="623.333" height="623.337"/>
		</defs>
		<clipPath id="SVGID_4_">
			<use xlink:href="#SVGID_3_"  overflow="visible"/>
		</clipPath>
		<g clip-path="url(#SVGID_4_)">
			<path fill="#E63832" d="M1004.943,562.358c0,172.129-139.537,311.668-311.668,311.668c-172.13,0-311.668-139.539-311.668-311.668
				c0-172.13,139.539-311.669,311.668-311.669C865.406,250.689,1004.943,390.228,1004.943,562.358"/>
		</g>
	</g>
</g>
<g opacity="0.65">
	<g>
		<defs>
			<rect id="SVGID_5_" x="69.939" y="250.689" width="623.336" height="623.337"/>
		</defs>
		<clipPath id="SVGID_6_">
			<use xlink:href="#SVGID_5_"  overflow="visible"/>
		</clipPath>
		<g clip-path="url(#SVGID_6_)">
			<path fill="#DBDCDD" d="M693.275,562.358c0,172.129-139.539,311.668-311.668,311.668c-172.13,0-311.668-139.539-311.668-311.668
				c0-172.13,139.538-311.669,311.668-311.669C553.736,250.689,693.275,390.228,693.275,562.358"/>
		</g>
	</g>
</g>
<g>
	<path fill="#FFFFFF" d="M97.052,806.042l-7.742-9.697c-3.239-4.057-2.978-9.516,0.654-12.414c2.975-2.375,6.479-1.631,8.462-0.494
		c-1.24-3.059-1.082-6.98,2.28-9.664c3.67-2.93,9.291-2.229,12.807,2.175l8.266,10.354L97.052,806.042z M97.288,802.059l8.925-7.125
		l-5.706-7.147c-2.282-2.859-6.042-3.527-8.515-1.553c-2.473,1.974-2.692,5.818-0.379,8.716L97.288,802.059z M108.223,793.329
		l9.62-7.68l-6.169-7.727c-2.437-3.053-6.504-3.791-9.209-1.631c-2.666,2.127-2.878,6.219-0.411,9.311L108.223,793.329z"/>
</g>
<g>
	<path fill="#FFFFFF" d="M76.472,779.467l-1.595-2.442l16.642-10.867c4.76-3.107,5.975-8.211,3.028-12.723s-8.039-5.438-12.8-2.33
		l-16.682,10.895l-1.622-2.484l16.6-10.839c6.25-4.081,12.984-2.812,16.931,3.232c3.92,6.003,2.348,12.638-3.902,16.72
		L76.472,779.467z"/>
</g>
<g>
	<path fill="#FFFFFF" d="M57.348,748.732l-1.446-2.59l27.672-15.444l1.446,2.59L57.348,748.732z"/>
</g>
<g>
	<path fill="#FFFFFF" d="M49.89,735.008l-1.289-2.672l26.049-12.565l-7.497-15.541l2.494-1.202l8.785,18.212L49.89,735.008z"/>
</g>
<g>
	<path fill="#FFFFFF" d="M38.482,702.954l26.875-10.687l1.096,2.757L39.578,705.71l3.909,9.832l-2.573,1.022l-8.932-22.466
		l2.573-1.022L38.482,702.954z"/>
</g>
<g>
</g>
<g>
	<path fill="#FFFFFF" d="M24.891,672.875l-5.282-19.057l2.668-0.739l4.49,16.198l11.244-3.116l-3.961-14.293l2.668-0.74
		l3.961,14.293l11.291-3.129l-4.49-16.198l2.668-0.739l5.282,19.057L24.891,672.875z"/>
</g>
<g>
	<path fill="#FFFFFF" d="M21.242,639.843l26.623-4.747l0.512,2.872l-31.198,5.563l-0.564-3.164l23.166-24.419l-26.672,4.756
		l-0.521-2.92l31.198-5.563l0.573,3.212L21.242,639.843z"/>
</g>
<g>
	<path fill="#FFFFFF" d="M38.524,591.933l-29.132-8.656l-0.236-3.057l32.545,9.832l0.267,3.45l-30.644,14.765l-0.255-3.303
		L38.524,591.933z"/>
</g>
<g>
	<path fill="#FFFFFF" d="M9.18,571.212l-0.032-2.967l31.688-0.339l0.032,2.966L9.18,571.212z"/>
</g>
<g>
	<path fill="#FFFFFF" d="M9.143,555.467l0.606-10.958c0.357-6.467,4.198-10.562,9.727-10.258c4.641,0.257,7.776,3.551,8.438,8.588
		l14.096-7.787l-0.188,3.406l-13.835,7.553l-0.415,7.504l13.377,0.739l-0.164,2.962L9.143,555.467z M11.972,552.652l12.934,0.715
		l0.456-8.243c0.248-4.492-2.204-7.599-6.055-7.812c-3.899-0.216-6.631,2.604-6.879,7.097L11.972,552.652z"/>
</g>
<g>
	<path fill="#FFFFFF" d="M31.768,495.214c8.89,1.385,15.017,9.595,13.647,18.387c-1.362,8.744-9.696,14.701-18.586,13.316
		c-8.988-1.4-15.164-9.617-13.802-18.361C14.396,499.763,22.779,493.813,31.768,495.214z M31.296,498.243
		c-7.425-1.157-14.331,3.671-15.435,10.754c-1.096,7.034,4.015,13.734,11.439,14.891c7.327,1.142,14.186-3.693,15.281-10.729
		C43.686,506.077,38.623,499.384,31.296,498.243z"/>
</g>
<g>
	<path fill="#FFFFFF" d="M23.894,479.675l26.105,7.061l-0.762,2.815l-30.592-8.272l0.84-3.103l31.367-12.208l-26.153-7.072
		l0.774-2.863l30.591,8.272l-0.852,3.149L23.894,479.675z"/>
</g>
<g>
	<path fill="#FFFFFF" d="M35.312,441.981l24.904,9.889l-1.095,2.757l-29.454-11.695l1.26-3.171l23.492-4.235l-14.206-19.152
		l1.113-2.803l29.453,11.695l-1.095,2.757l-24.904-9.889l14.206,19.418L35.312,441.981z"/>
</g>
<g>
	<path fill="#FFFFFF" d="M47.304,401.373l9.119-17.548l2.456,1.277l-7.751,14.915l10.354,5.38l6.839-13.16l2.457,1.276l-6.84,13.16
		l10.396,5.403l7.751-14.915l2.457,1.276l-9.119,17.548L47.304,401.373z"/>
</g>
<g>
	<path fill="#FFFFFF" d="M67.128,374.723l22.731,14.65l-1.58,2.452l-26.638-17.168l1.741-2.701l33.593-2.111l-22.772-14.677
		l1.606-2.493l26.638,17.168l-1.768,2.743L67.128,374.723z"/>
</g>
<g>
	<path fill="#FFFFFF" d="M91.574,336.432l22.774,17.827l-1.828,2.336l-22.774-17.827l-6.521,8.331l-2.181-1.707l14.901-19.037
		l2.18,1.707L91.574,336.432z"/>
</g>
<g>
</g>
<g>
	<path fill="#FFFFFF" d="M360.643,81.317l12.375,29.867l-2.627,2.243l-23.885-15.123l11.151,25.993l-2.554,2.18l-27.555-16.909
		l2.407-2.056l24.124,15.107l-11.316-26.04l2.736-2.336l23.983,15.165l-11.14-26.128L360.643,81.317z"/>
</g>
<g>
	<path fill="#FFFFFF" d="M401.392,72.909c4.797,7.295,2.887,17.05-4.328,21.794c-7.175,4.718-16.889,2.608-21.686-4.687
		c-4.851-7.375-2.966-17.17,4.209-21.888C386.802,63.383,396.542,65.533,401.392,72.909z M398.906,74.543
		c-4.007-6.093-11.978-7.912-17.79-4.09c-5.771,3.796-7.26,11.836-3.254,17.929c3.955,6.013,11.9,7.792,17.672,3.996
		C401.347,88.556,402.86,80.556,398.906,74.543z"/>
</g>
<g>
	<path fill="#FFFFFF" d="M402.891,54.481l9.449-4.913c5.576-2.899,10.895-1.717,13.373,3.05c2.08,4.001,0.881,8.246-2.997,11.291
		l13.472,7.919l-2.937,1.526l-13.148-7.816l-6.47,3.364l5.997,11.535l-2.554,1.328L402.891,54.481z M406.64,55.452l5.798,11.152
		l7.108-3.695c3.873-2.014,5.254-5.599,3.527-8.918c-1.748-3.363-5.452-4.249-9.326-2.234L406.64,55.452z"/>
</g>
<g>
	<path fill="#FFFFFF" d="M432.11,39.966l2.66-1.1l5.458,13.213l3.68-1.521l4.917-17.499l3.104-1.283l-5.275,18.894l17.549,9.308
		l-3.369,1.392l-15.766-8.385l-3.813,1.575l5.257,12.726l-2.66,1.1L432.11,39.966z"/>
</g>
<g>
	<path fill="#FFFFFF" d="M461.12,28.551l10.158-3.198c6.406-2.017,11.817,0.152,13.518,5.552c1.686,5.354-1.492,10.276-8.082,12.351
		l-7.229,2.276l3.616,11.486l-2.746,0.864L461.12,28.551z M464.644,30.157l4.062,12.904l7.642-2.405
		c4.576-1.441,6.821-5.015,5.61-8.857c-1.225-3.891-5.097-5.488-9.673-4.047L464.644,30.157z"/>
</g>
<g>
	<path fill="#FFFFFF" d="M492.197,19.41l2.808-0.631l6.146,27.384l16.336-3.667l0.588,2.622l-19.145,4.297L492.197,19.41z"/>
</g>
<g>
	<path fill="#FFFFFF" d="M541.793,32.891l-15.597,2.08l-2.46,9.137l-2.948,0.393l8.774-32.193l3.329-0.444l16.856,28.776
		l-3.187,0.425L541.793,32.891z M531.49,15.147l-4.591,17.116l13.506-1.801L531.49,15.147z"/>
</g>
<g>
	<path fill="#FFFFFF" d="M576.166,14.024c-2.422-1.726-5.107-2.816-8.895-2.662c-6.95,0.284-12.318,6.409-12.021,13.695
		c0.295,7.19,6.141,12.809,13.475,12.509c3.26-0.133,6.238-1.263,8.367-3.222l1.906,1.987c-2.818,2.707-6.133,3.852-10.398,4.025
		c-8.82,0.36-15.965-6.455-16.32-15.179c-0.36-8.82,6.299-16.246,14.879-16.596c4.602-0.188,7.91,0.877,10.785,3.113L576.166,14.024
		z"/>
</g>
<g>
	<path fill="#FFFFFF" d="M587.434,8.953l19.167,0.914l-0.128,2.684l-16.293-0.776l-0.539,11.309l14.376,0.686l-0.128,2.683
		l-14.375-0.685l-0.542,11.356l16.292,0.776l-0.127,2.684l-19.168-0.913L587.434,8.953z"/>
</g>
<g>
</g>
<g>
	<path fill="#FFFFFF" d="M639.793,14.141l2.893,0.453L624.13,42.812l-2.892-0.453L639.793,14.141z"/>
</g>
<g>
</g>
<g>
	<path fill="#FFFFFF" d="M684.767,30.256c-1.78-2.383-4.005-4.242-7.657-5.251c-6.705-1.853-13.687,2.339-15.629,9.368
		c-1.916,6.936,1.936,14.072,9.01,16.027c3.145,0.869,6.326,0.703,8.951-0.514l1.208,2.475c-3.511,1.718-7.017,1.795-11.132,0.657
		c-8.508-2.351-13.229-11.021-10.904-19.438c2.352-8.509,10.961-13.546,19.238-11.259c4.439,1.227,7.263,3.252,9.319,6.259
		L684.767,30.256z"/>
</g>
<g>
	<path fill="#FFFFFF" d="M696.913,28.722l2.644,1.012l-6.895,18.011c-1.973,5.152-0.022,9.854,4.86,11.723
		c4.884,1.87,9.413-0.3,11.386-5.453l6.911-18.055l2.688,1.029l-6.877,17.965c-2.59,6.766-8.606,9.6-15.147,7.096
		c-6.497-2.486-9.038-8.596-6.448-15.361L696.913,28.722z"/>
</g>
<g>
	<path fill="#FFFFFF" d="M729.908,42.111l2.587,1.262l-12.301,25.225l15.049,7.339l-1.177,2.415L716.43,69.75L729.908,42.111z"/>
</g>
<g>
	<path fill="#FFFFFF" d="M757.762,59.625L743.854,84l-2.5-1.426l13.908-24.376l-8.917-5.088l1.331-2.334l20.376,11.626l-1.331,2.333
		L757.762,59.625z"/>
</g>
<g>
	<path fill="#FFFFFF" d="M775.148,66.883l2.326,1.611l-10.982,15.852c-3.142,4.535-2.366,9.566,1.932,12.545
		c4.299,2.978,9.215,1.947,12.355-2.588l11.01-15.893l2.367,1.64l-10.955,15.813c-4.126,5.955-10.644,7.275-16.4,3.287
		c-5.719-3.961-6.732-10.5-2.607-16.455L775.148,66.883z"/>
</g>
<g>
	<path fill="#FFFFFF" d="M804.141,87.785l8.145,6.861c4.806,4.049,5.742,9.417,2.279,13.525c-2.905,3.449-7.287,3.96-11.58,1.535
		l-2.184,15.474l-2.532-2.133l2.213-15.136l-5.577-4.698l-8.376,9.942l-2.201-1.854L804.141,87.785z M804.672,91.62l-8.098,9.612
		l6.127,5.162c3.338,2.812,7.178,2.723,9.589-0.139c2.442-2.898,1.848-6.661-1.491-9.475L804.672,91.62z"/>
</g>
<g>
	<path fill="#FFFFFF" d="M828.65,109.247l13.559,13.58l-1.901,1.898l-11.524-11.543l-8.012,7.998l10.168,10.186l-1.901,1.897
		l-10.169-10.185l-8.045,8.033l11.523,11.543l-1.9,1.898l-13.559-13.58L828.65,109.247z"/>
</g>
<g>
	<path fill="#FFFFFF" d="M1055.082,458.095l3.02,10.59c1.904,6.68-0.49,12.211-6.119,13.816c-5.582,1.59-10.581-1.832-12.54-8.701
		l-2.149-7.537l-11.974,3.414l-0.816-2.863L1055.082,458.095z M1053.322,461.69l-13.453,3.838l2.271,7.967
		c1.361,4.77,4.991,7.189,8.998,6.047c4.055-1.156,5.815-5.113,4.455-9.885L1053.322,461.69z"/>
</g>
<g>
	<path fill="#FFFFFF" d="M1053.482,522.997c-8.885,1.607-17.389-4.164-18.979-12.951c-1.58-8.736,4.363-17.121,13.248-18.729
		c8.98-1.625,17.535,4.137,19.117,12.875C1068.458,512.978,1062.465,521.372,1053.482,522.997z M1052.936,519.97
		c7.418-1.342,12.381-8.188,11.102-15.266c-1.272-7.029-8.319-11.703-15.738-10.361c-7.322,1.324-12.236,8.162-10.965,15.191
		C1038.615,516.612,1045.613,521.294,1052.936,519.97z"/>
</g>
<g>
	<path fill="#FFFFFF" d="M1070.356,531.753l0.248,2.967l-28.919,2.414l1.44,17.254l-2.769,0.23l-1.688-20.219L1070.356,531.753z"/>
</g>
<g>
	<path fill="#FFFFFF" d="M1051.331,563.776l20.736-12.295l0.055,3.375l-17.643,10.406l17.972,9.879l0.053,3.225l-21.125-11.615
		l-10.863,0.176l-0.048-2.975L1051.331,563.776z"/>
</g>
<g>
</g>
<g>
	<path fill="#FFFFFF" d="M1063.364,617.815c2.178-1.268,4.293-4.287,4.674-7.887c0.475-4.49-1.284-7.668-4.441-8.002
		c-8.14-0.861-6.406,18.128-17.703,16.934c-5.426-0.574-8.524-5.24-7.8-12.098c0.574-5.427,3.161-9.144,6.405-11.045l1.75,2.33
		c-3.053,1.972-4.98,5.109-5.393,9.007c-0.537,5.081,1.518,8.292,5.069,8.667c9.077,0.959,7.092-18.006,17.896-16.864
		c4.835,0.511,7.642,5.099,6.97,11.46c-0.496,4.688-2.98,8.365-5.63,9.832L1063.364,617.815z"/>
</g>
<g>
	<path fill="#FFFFFF" d="M1045.447,635.284l22.807-7.809l-0.634,3.314l-19.393,6.593l15.58,13.333l-0.605,3.168l-18.314-15.676
		l-10.671-2.042l0.56-2.923L1045.447,635.284z"/>
</g>
<g>
	<path fill="#FFFFFF" d="M1050.584,677.217c2.357-0.888,4.943-3.515,5.916-7.003c1.211-4.35,0.002-7.774-3.056-8.627
		c-7.885-2.196-9.32,16.816-20.264,13.768c-5.256-1.465-7.538-6.58-5.687-13.223c1.465-5.256,4.632-8.492,8.146-9.831l1.338,2.587
		c-3.336,1.439-5.757,4.215-6.809,7.99c-1.372,4.922,0.123,8.428,3.562,9.387c8.794,2.449,9.978-16.584,20.442-13.668
		c4.684,1.306,6.692,6.295,4.976,12.457c-1.266,4.541-4.325,7.757-7.181,8.764L1050.584,677.217z"/>
</g>
<g>
	<path fill="#FFFFFF" d="M1046.424,699.482l-27.241-10.001l1.026-2.795l27.241,10.002l3.659-9.967l2.607,0.958l-8.359,22.772
		l-2.608-0.958L1046.424,699.482z"/>
</g>
<g>
	<path fill="#FFFFFF" d="M1041.843,718.592l-8.287,18.029l-2.524-1.16l7.044-15.324l-10.638-4.89l-6.215,13.521l-2.524-1.16
		l6.216-13.521l-10.682-4.91l-7.045,15.325l-2.523-1.16l8.287-18.029L1041.843,718.592z"/>
</g>
<g>
	<path fill="#FFFFFF" d="M1022.951,746.503l-23.168-13.643l1.51-2.564l27.4,16.135l-1.736,2.949l-23.945,0.579l11.133,21.179
		l-1.535,2.607l-27.4-16.136l1.51-2.565l23.168,13.644l-11.091-21.441L1022.951,746.503z"/>
</g>
<g>
	<path fill="#FFFFFF" d="M989.605,795.373c2.52,0.007,5.869-1.532,8.016-4.449c2.676-3.637,2.76-7.269,0.203-9.149
		c-6.593-4.851-14.678,12.418-23.829,5.686c-4.395-3.233-4.715-8.826-0.628-14.381c3.233-4.395,7.344-6.299,11.104-6.303
		l0.334,2.895c-3.63,0.162-6.877,1.898-9.2,5.055c-3.028,4.115-2.874,7.924,0.003,10.041c7.353,5.409,15.209-11.967,23.96-5.529
		c3.915,2.881,4.024,8.259,0.232,13.413c-2.792,3.796-6.794,5.717-9.82,5.646L989.605,795.373z"/>
</g>
</svg>
