<?xml version="1.0" encoding="utf-8"?>
<!-- Generator: Adobe Illustrator 16.0.0, SVG Export Plug-In . SVG Version: 6.00 Build 0)  -->
<!DOCTYPE svg PUBLIC "-//W3C//DTD SVG 1.1//EN" "http://www.w3.org/Graphics/SVG/1.1/DTD/svg11.dtd">
<svg version="1.1" id="Layer_1" xmlns="http://www.w3.org/2000/svg" xmlns:xlink="http://www.w3.org/1999/xlink" x="0px" y="0px"
	 width="204.133px" height="69.661px" viewBox="0 0 204.133 69.661" enable-background="new 0 0 204.133 69.661"
	 xml:space="preserve">
<path fill="#FFFFFF" d="M171.299,1.142h-1.298L137.21,68.506h6.707l9.222-19.123h34.693l9.262,19.123h7.039L171.299,1.142z
	 M155.817,43.709l14.674-30.356l14.652,30.356H155.817z"/>
<path fill="#FFFFFF" d="M121.585,59.89c-4.624,2.312-10.298,3.678-16.393,3.678c-16.076,0-28.369-12.818-28.369-28.58
	c0-15.971,12.293-28.894,27.529-28.894c8.301,0,14.08,2.627,19.229,6.62l4.098-4.939C121.585,2.626,114.44,0,104.353,0
	C85.545,0,70.31,15.655,70.31,34.987c0,19.124,15.025,34.674,34.358,34.674c9.351,0,16.812-1.681,23.221-5.778V34.903h-6.304V59.89z
	"/>
<polygon fill="#FFFFFF" points="50.712,31.73 6.305,31.73 6.305,1.156 0,1.156 0,34.49 0,68.506 6.305,68.506 6.305,37.615 
	50.712,37.615 50.712,68.506 57.017,68.506 57.017,34.637 57.017,1.156 50.712,1.156 "/>
</svg>
