<?xml version="1.0" encoding="utf-8"?>
<!-- Generator: Adobe Illustrator 16.0.0, SVG Export Plug-In . SVG Version: 6.00 Build 0)  -->
<!DOCTYPE svg PUBLIC "-//W3C//DTD SVG 1.1//EN" "http://www.w3.org/Graphics/SVG/1.1/DTD/svg11.dtd">
<svg version="1.1" id="Layer_1" xmlns="http://www.w3.org/2000/svg" xmlns:xlink="http://www.w3.org/1999/xlink" x="0px" y="0px"
	 width="276.594px" height="120.555px" viewBox="0 0 276.594 120.555" enable-background="new 0 0 276.594 120.555"
	 xml:space="preserve">
<path fill="#FFFFFF" d="M144.832,39.771c-11.458-0.192-20.9,8.941-21.092,20.398c-0.006,0.364-0.003,0.729,0.01,1.092v40.771
	l10.603-6.133V78.057c3.077,2.322,6.852,3.534,10.707,3.438c11.522,0.262,21.075-8.868,21.338-20.391
	c0.26-11.523-8.868-21.076-20.393-21.338c-0.371-0.009-0.741-0.007-1.111,0.005H144.832z M144.832,71.015
	c-5.738,0-10.389-4.65-10.389-10.39c0-5.737,4.65-10.389,10.389-10.389s10.389,4.651,10.389,10.39
	c0.275,5.463-3.932,10.115-9.395,10.389C145.495,71.032,145.163,71.032,144.832,71.015 M217.407,26.716l10.602-6.148V79.92h-10.602
	V26.716z M190.964,39.771c-11.524,0.116-20.773,9.555-20.657,21.081c0.117,11.524,9.557,20.773,21.082,20.656
	c11.447-0.116,20.666-9.434,20.657-20.884c0.061-11.459-9.181-20.797-20.64-20.855c-0.137-0.001-0.275,0-0.412,0.002H190.964z
	 M190.964,71.015c-5.737,0-10.39-4.65-10.39-10.39c0-5.737,4.652-10.389,10.39-10.389s10.391,4.651,10.391,10.39
	c0.272,5.463-3.935,10.114-9.398,10.387c-0.319,0.018-0.641,0.018-0.962,0.002H190.964z M276.594,41.346L251.802,98.02h-11.329
	l8.589-18.963l-16.66-37.711h11.571l10.935,24.732l10.389-24.732H276.594z"/>
<path fill="#EE4023" d="M90.583,52.417l-21.765,12.57l0.106-0.59v-0.531v-0.863v-0.136v-1.06v-2v-1.211l-0.09-1.106l-0.107-1.196
	l-0.091-0.666l-0.167-1.167l-0.212-1.136l-0.226-1.12L67.758,51.1l-0.181-0.682l-0.318-1.06l-0.348-1.031l-0.319-0.848l-0.408-1.016
	l-0.438-0.969l-0.454-0.954l-0.5-0.954l-0.546-0.924v-0.091l-0.576-0.908l-0.605-0.909l-0.637-0.878l-0.68-0.879l-0.729-0.878
	l-0.091-0.091l-0.757-0.848l-0.818-0.849l-0.848-0.849l-0.909-0.833l-0.954-0.833l-1.015-0.833l-1.029-0.787l-1.137-0.848
	l-1.241-0.864l-0.924-0.62l-1.423-0.909l-1.606-0.983l-0.53-0.319l-1.952-1.166l-0.5-0.272l-1.228-0.727L0,0v15.962l21.763,12.557
	l-0.56,0.212l-0.485,0.212l-0.788,0.363l-0.938,0.5l-1,0.574l-0.728,0.426l-1.014,0.65l-0.924,0.637l-0.985,0.696l-0.53,0.408
	l-0.924,0.728l-0.893,0.742l-0.85,0.772l-0.816,0.772l-0.5,0.499l-0.757,0.804l-0.729,0.833l-0.575,0.696l-0.666,0.849l-0.621,0.862
	l-0.605,0.879l-0.561,0.908L4.77,43.481v0.076l-0.5,0.954l-0.483,0.983l-0.44,1l-0.424,1.016l-0.378,1.06v0.136l-0.364,1.09
	l-0.316,1.121l-0.305,1.151l-0.271,1.197v0.105l-0.243,1.242l-0.211,1.302L0.65,57.203L0.5,58.611l-0.137,1.515v1.12l-0.092,1.682
	v1.878v55.749l13.828-7.967V87.509l0.454,0.378l0.424,0.318l0.728,0.499l0.893,0.562l1.017,0.591l0.726,0.408l1.091,0.561
	l0.985,0.484l1.104,0.5l0.575,0.242l1.106,0.439l1.104,0.394l1.091,0.363l1.092,0.318l0.666,0.182l1.091,0.257l1.075,0.213
	l0.878,0.151l1.091,0.151l1.075,0.121l1.028,0.076h1.091h1.151h1.075l1.105-0.076l1.092-0.121l1.104-0.151l1.12-0.197h0.107
	l1.136-0.242l1.135-0.272l1.166-0.333l1.198-0.364l1.195-0.424l1.241-0.47l1.183-0.484l1.316-0.576l1.379-0.65l0.984-0.484
	l1.515-0.772l1.666-0.894l0.529-0.288l1.999-1.136l0.47-0.272l1.242-0.713l44.042-25.428L90.583,52.417z M34.772,80.92
	c-11.366,0.009-20.589-9.199-20.598-20.566c-0.007-11.368,9.201-20.589,20.568-20.599c11.366-0.008,20.589,9.2,20.596,20.567v0.015
	C55.339,71.699,46.134,80.911,34.772,80.92"/>
</svg>
